<?xml version="1.0" standalone="no"?>
<!DOCTYPE svg PUBLIC "-//W3C//DTD SVG 20010904//EN"
 "http://www.w3.org/TR/2001/REC-SVG-20010904/DTD/svg10.dtd">
<svg version="1.0" xmlns="http://www.w3.org/2000/svg"
 width="16.000000pt" height="16.000000pt" viewBox="0 0 16.000000 16.000000"
 preserveAspectRatio="xMidYMid meet">
<metadata>
Created by potrace 1.16, written by Peter Selinger 2001-2019
</metadata>
<g transform="translate(0.000000,16.000000) scale(0.013333,-0.013333)"
fill="#000000" stroke="none">
<path d="M500 1176 c-256 -54 -432 -234 -475 -485 -17 -99 -11 -181 21 -279
93 -284 391 -453 681 -386 107 24 202 76 282 155 39 38 68 69 65 69 -4 0 0 8
9 18 32 35 79 153 93 234 35 193 -37 396 -187 532 -131 118 -329 175 -489 142z
m7 -351 c32 -13 33 -16 33 -69 0 -31 -2 -56 -4 -56 -2 0 -23 9 -47 20 -24 11
-66 20 -92 20 -42 0 -54 -5 -82 -33 -60 -60 -57 -168 6 -222 38 -31 113 -34
177 -5 l42 19 0 -55 c0 -54 -1 -55 -37 -70 -20 -9 -67 -16 -103 -17 -55 -1
-74 4 -113 26 -81 48 -121 121 -120 222 1 145 119 254 257 239 27 -3 64 -11
83 -19z m463 -30 l0 -45 -85 0 -85 0 0 -50 0 -50 85 0 85 0 0 -45 0 -45 -82 0
-83 0 0 -97 0 -98 -52 -3 -53 -3 0 240 0 241 135 0 135 0 0 -45z"/>
</g>
</svg>
